HIERARCHY
ROOT Hips
{
	OFFSET 0.000000 0.000000 0.000000
	CHANNELS 6 Xposition Yposition Zposition Zrotation Yrotation Xrotation 
	JOINT LHipJoint
	{
		OFFSET 0.000000 0.000000 0.000000
		CHANNELS 3 Zrotation Yrotation Xrotation
		JOINT LeftUpLeg
		{
			OFFSET 1.363060 -1.794630 0.839290
			CHANNELS 3 Zrotation Yrotation Xrotation
			JOINT LeftLeg
			{
				OFFSET 2.448110 -6.726130 0.000000
				CHANNELS 3 Zrotation Yrotation Xrotation
				JOINT LeftFoot
				{
					OFFSET 2.562200 -7.039590 0.000000
					CHANNELS 3 Zrotation Yrotation Xrotation
					JOINT LeftToeBase
					{
						OFFSET 0.157640 -0.433110 2.322550
						CHANNELS 3 Zrotation Yrotation Xrotation
						End Site
						{
							OFFSET 0.000000 0.000000 0.000000
						}
					}
				}
			}
		}
	}
	JOINT RHipJoint
	{
		OFFSET 0.000000 0.000000 0.000000
		CHANNELS 3 Zrotation Yrotation Xrotation
		JOINT RightUpLeg
		{
			OFFSET -1.305520 -1.794630 0.839290
			CHANNELS 3 Zrotation Yrotation Xrotation
			JOINT RightLeg
			{
				OFFSET -2.542530 -6.985550 0.000000
				CHANNELS 3 Zrotation Yrotation Xrotation
				JOINT RightFoot
				{
					OFFSET -2.568260 -7.056230 0.000000
					CHANNELS 3 Zrotation Yrotation Xrotation
					JOINT RightToeBase
					{
						OFFSET -0.164730 -0.452590 2.363150
						CHANNELS 3 Zrotation Yrotation Xrotation
						End Site
						{
							OFFSET 0.000000 0.000000 0.000000
						}
					}
				}
			}
		}
	}
}
MOTION
Frames: 24
Frame Time: 0.008333
-1.829242 16.003516 0.124701 -124.419432 84.115797 -98.768931 -11.697905 -1.637322 -4.257024 -10.605849 5.123718 -48.192555 1.252029 4.759776 79.043923 3.922597 20.777542 -23.192591 -5.307001 -0.000000 -7.888100 8.442327 -0.824132 -2.082391 11.441113 1.927807 -31.247026 2.301016 -2.785325 44.310575 -2.992175 -7.783418 -26.555945 2.992900 -0.000000 -51.877600
-1.612837 16.106922 0.079132 -128.758339 84.110076 -102.938301 -11.512430 -1.709340 -4.021146 -10.954576 4.791869 -49.058235 0.967821 4.594283 76.600114 3.867618 20.033955 -23.241201 -5.145400 -0.000000 -8.433400 8.459690 -0.901776 -2.046247 11.013255 1.609443 -29.558794 2.315885 -2.561569 41.892704 -2.888533 -7.868304 -24.794970 2.679700 0.000000 -53.250399
-1.391795 16.214355 0.028324 -132.694756 84.081650 -106.661302 -11.322991 -1.764229 -3.758519 -11.296133 4.445568 -49.847681 0.670454 4.406391 73.853972 3.817997 19.289459 -23.205548 -4.952700 0.000000 -9.124400 8.489020 -0.986937 -1.993430 10.571733 1.299933 -28.005778 2.305045 -2.355182 39.549783 -2.739510 -7.862357 -22.645371 2.270900 -0.000000 -55.250999
-1.166533 16.324776 -0.027865 -136.105274 84.039300 -109.816392 -11.127471 -1.800617 -3.470100 -11.629334 4.089654 -50.556780 0.363045 4.194933 70.807572 3.777452 18.559868 -23.103644 -4.741200 -0.000000 -9.843100 8.536799 -1.080991 -1.927697 10.116375 0.980803 -26.627320 2.271476 -2.175877 37.342005 -2.541712 -7.732521 -20.103617 1.774500 0.000000 -57.871400
-0.937739 16.436964 -0.089315 -138.938770 83.991925 -112.354944 -10.924213 -1.818727 -3.158170 -11.952948 3.725848 -51.180811 0.049732 3.958335 67.466955 3.747936 17.856645 -22.936254 -4.515100 0.000000 -10.597099 8.608590 -1.184004 -1.856592 9.645711 0.627008 -25.456214 2.219506 -2.032634 35.324483 -2.295426 -7.447761 -17.181202 1.213800 0.000000 -61.075700
-0.706123 16.549666 -0.155789 -141.201570 83.947749 -114.290577 -10.713040 -1.818659 -2.824622 -12.266369 3.354680 -51.711692 -0.266061 3.694815 63.842660 3.730093 17.184860 -22.710364 -4.279200 0.000000 -11.292200 8.707637 -1.294552 -1.787906 9.156821 0.215061 -24.510425 2.153994 -1.931412 33.541885 -2.006783 -6.982644 -13.918116 0.630300 0.000001 -64.642999
-0.472510 16.661488 -0.226837 -142.945077 83.911825 -115.682951 -10.494774 -1.801359 -2.472143 -12.568540 2.974908 -52.141741 -0.580737 3.402478 59.950927 3.722960 16.546926 -22.423169 -4.033700 -0.000000 -11.893600 8.834991 -1.408733 -1.730393 8.646952 -0.274011 -23.793616 2.078981 -1.874657 32.026463 -1.688624 -6.325038 -10.376302 0.079399 0.000000 -68.301700
-0.237803 16.770904 -0.301852 -144.248458 83.888732 -116.618906 -10.272313 -1.768829 -2.105085 -12.857965 2.585112 -52.464923 -0.891373 3.080017 55.814100 3.724138 15.943654 -22.068297 -3.778000 -0.000000 -12.390200 8.987525 -1.519516 -1.693281 8.114662 -0.848209 -23.294809 1.996907 -1.860371 30.794765 -1.360821 -5.484027 -6.638614 -0.377600 0.000000 -71.789300
-0.002818 16.876403 -0.380153 -145.197884 83.880358 -117.191622 -10.050277 -1.724509 -1.728791 -13.130647 2.185761 -52.678721 -1.195682 2.726317 51.461894 3.730270 15.376722 -21.639383 -3.511300 0.000000 -12.781400 9.158185 -1.618111 -1.684179 7.561863 -1.500039 -22.987081 1.909092 -1.882099 29.848315 -1.048281 -4.494700 -2.812385 -0.687000 -0.000000 -74.821200
0.231666 16.976388 -0.461085 -145.865352 83.872982 -117.488379 -9.830111 -1.671747 -1.344540 -13.377367 1.780171 -52.780897 -1.490257 2.337537 46.933198 3.737390 14.848617 -21.131306 -3.234300 -0.000000 -13.098200 9.343478 -1.699220 -1.701303 6.998010 -2.208519 -22.828950 1.816752 -1.930302 29.174348 -0.776725 -3.422315 0.977333 -0.818899 0.000000 -77.164500
0.464974 17.069372 -0.544007 -146.309526 83.856314 -117.578200 -9.616870 -1.617044 -0.957482 -13.587146 1.377193 -52.776184 -1.772128 1.912449 42.276363 3.741149 14.363840 -20.543045 -2.948700 -0.000000 -13.399099 9.534493 -1.757571 -1.744206 6.435156 -2.942065 -22.773192 1.721170 -1.994227 28.753116 -0.567274 -2.360193 4.595805 -0.780000 -0.000000 -78.707600
0.696564 17.153951 -0.628430 -146.563044 83.818947 -117.504117 -9.416712 -1.568750 -0.574108 -13.747732 0.991631 -52.675598 -2.037598 1.452080 37.551551 3.737479 13.928037 -19.879972 -2.658600 0.000000 -13.755100 9.721402 -1.791167 -1.810592 5.887848 -3.664165 -22.771837 1.624170 -2.064371 28.565480 -0.431914 -1.421081 7.905137 -0.618100 0.000000 -79.386799
0.926064 17.228846 -0.714035 -146.638280 83.750603 -117.289252 -9.236498 -1.535833 -0.202631 -13.848869 0.644475 -52.494870 -2.282070 0.961395 32.833083 3.722900 13.545218 -19.155724 -2.369600 -0.000000 -14.226000 9.895053 -1.801990 -1.897100 5.370555 -4.341891 -22.780020 1.527168 -2.134037 28.592787 -0.372736 -0.726736 10.789177 -0.415500 0.000000 -79.339400
1.153188 17.293001 -0.800691 -146.522036 83.642997 -116.931646 -9.082637 -1.526692 0.146356 -13.885334 0.363083 -52.257444 -2.500321 0.451154 28.211956 3.694682 13.214530 -18.390115 -2.087600 0.000000 -14.881300 10.048062 -1.795214 -1.999737 4.896660 -4.947210 -22.762190 1.430871 -2.200447 28.829327 -0.383935 -0.387240 13.148346 -0.268300 0.000000 -78.608099
1.377859 17.345523 -0.888359 -146.201096 83.491509 -116.429723 -8.959943 -1.546721 0.460486 -13.862997 0.177920 -51.992780 -2.688148 -0.061591 23.794361 3.651152 12.927369 -17.610350 -1.819300 0.000000 -15.756900 10.175575 -1.777643 -2.114008 4.475207 -5.461625 -22.692407 1.334614 -2.263573 29.272640 -0.456182 -0.484474 14.922675 -0.262900 0.000001 -77.331700
1.600109 17.385703 -0.977051 -145.674750 83.295509 -115.792172 -8.870485 -1.596552 0.726930 -13.802053 0.119014 -51.736280 -2.844513 -0.554900 19.695865 3.591444 12.665112 -16.847495 -1.570900 -0.000000 -16.862900 10.275558 -1.756033 -2.234756 4.110100 -5.874825 -22.555228 1.236797 -2.324937 29.923013 -0.580252 -1.056962 16.090580 -0.453301 0.000000 -75.663901
1.820124 17.413026 -1.066790 -144.970874 83.058052 -115.053607 -8.812979 -1.671662 0.935198 -13.734937 0.207925 -51.526573 -2.972587 -1.005491 16.030789 3.515970 12.403469 -16.132675 -1.347500 0.000000 -18.176899 10.348781 -1.735563 -2.356819 3.798142 -6.185376 -22.346569 1.136013 -2.386897 30.783947 -0.747897 -2.086719 16.661145 -0.846100 0.000000 -73.651200
2.038142 17.427123 -1.157506 -144.150506 82.785015 -114.275323 -8.783303 -1.763796 1.079312 -13.698022 0.449799 -51.400499 -3.078901 -1.393004 12.898312 3.427118 12.121328 -15.492348 -1.153200 0.000000 -19.635400 10.398039 -1.719042 -2.475364 3.530304 -6.397216 -22.069926 1.030896 -2.450974 31.844999 -0.953540 -3.513832 16.697170 -1.407300 -0.000000 -71.570800
2.254497 17.427807 -1.249085 -143.288826 82.483854 -113.526268 -8.775845 -1.862694 1.160891 -13.718260 0.828018 -51.390865 -3.170462 -1.702539 10.374630 3.329926 11.811033 -14.942928 -0.989500 0.000000 -21.147000 10.427630 -1.707937 -2.586501 3.295033 -6.520343 -21.740061 0.921813 -2.519157 33.099895 -1.189878 -5.230619 16.273596 -2.067500 -0.000000 -69.428200
2.469622 17.415022 -1.341106 -142.513643 82.166048 -112.919036 -8.782850 -1.957655 1.194226 -13.796051 1.278582 -51.505041 -3.247886 -1.929790 8.480398 3.237569 11.515255 -14.478018 -0.853400 -0.000000 -22.607900 10.445410 -1.701090 -2.688401 3.069596 -6.576201 -21.382744 0.810043 -2.593908 34.538336 -1.447185 -7.101934 15.487611 -2.742800 0.000001 -67.238100
2.683731 17.388729 -1.433514 -141.861715 81.833185 -112.474899 -8.801490 -2.041823 1.190839 -13.914849 1.756023 -51.763534 -3.311931 -2.068367 7.252094 3.158036 11.255806 -14.095143 -0.741500 0.000000 -23.897800 10.454502 -1.700463 -2.778999 2.851357 -6.574935 -21.018224 0.697112 -2.676107 36.133741 -1.714492 -9.005027 14.464002 -3.364900 -0.000000 -65.131400
2.897296 17.349093 -1.525703 -141.459715 81.495012 -112.297724 -8.826158 -2.108692 1.175328 -14.029649 2.159903 -52.145961 -3.352640 -2.123549 6.654639 3.109163 11.120017 -13.761589 -0.644800 -0.000000 -24.933600 10.463457 -1.704723 -2.858819 2.617805 -6.544678 -20.676658 0.584812 -2.767754 37.863053 -1.976756 -10.813154 13.317300 -3.879199 -0.000000 -63.174000
3.110480 17.296308 -1.617381 -141.352965 81.150786 -112.416394 -8.855632 -2.154740 1.161054 -14.109511 2.439218 -52.657350 -3.365825 -2.093746 6.695605 3.096393 11.133885 -13.459262 -0.555800 0.000000 -25.658500 10.475578 -1.716146 -2.927022 2.365404 -6.502825 -20.377169 0.474584 -2.869026 39.694113 -2.218980 -12.431030 12.154765 -4.261300 0.000000 -61.456499
3.323430 17.230695 -1.708099 -141.587659 80.799135 -112.865848 -8.888580 -2.177351 1.156057 -14.142012 2.563381 -53.308106 -3.349870 -1.976754 7.388751 3.118517 11.292772 -13.174063 -0.468200 -0.000000 -26.053900 10.493418 -1.736979 -2.982658 2.089921 -6.468770 -20.131931 0.367393 -2.979146 41.593440 -2.427303 -13.786679 11.058336 -4.507400 0.000000 -60.046801
